<svg xmlns="http://www.w3.org/2000/svg" viewBox="0 0 102 20" class="design-iconfont">
  <defs>
    <linearGradient x1="99.6763003%" y1="49.6763003%" x2=".72807959%" y2="49.6763003%" id="gpc16maou__lg3f7uz2sa">
      <stop stop-color="#6650EB" offset="0%"/>
      <stop stop-color="#7F50EB" offset="100%"/>
    </linearGradient>
  </defs>
  <g fill="none" fill-rule="evenodd">
    <path d="M24.5611622,19.4594595 L22.399,19.4594595 L22.399,4.32432432 L27.8044054,4.32432432 L27.8044054,6.43081081 C28.9484595,4.88513514 30.4452162,3.83621622 32.371973,3.65297297 L32.371973,10.512973 C31.9671081,10.3313514 31.5198108,10.2278378 31.0476486,10.2278378 L31.0476486,10.2278378 C29.2565676,10.2278378 27.8044054,11.68 27.8044054,13.4710811 L27.8044054,16.2162162 C27.8044054,18.0072973 26.3522432,19.4594595 24.5611622,19.4594595 M42.3718378,15.1351351 C40.8791351,15.1351351 39.6691351,13.682973 39.6691351,11.8918919 C39.6691351,10.1008108 40.8791351,8.64864865 42.3718378,8.64864865 C43.8645405,8.64864865 45.0745405,10.1008108 45.0745405,11.8918919 C45.0745405,13.682973 43.8645405,15.1351351 42.3718378,15.1351351 L42.3718378,15.1351351 Z M45.0745405,4.32432432 L45.0745405,5.76 C43.8423784,4.52972973 42.2372432,3.78378378 40.4799459,3.78378378 C36.5991351,3.78378378 33.4529189,7.41378378 33.4529189,11.8918919 C33.4529189,16.37 36.5991351,20 40.4799459,20 C42.2372432,20 43.8423784,19.2540541 45.0745405,18.0237838 L45.0745405,19.4594595 L49.3988649,19.4594595 L49.3988649,4.32432432 L45.0745405,4.32432432 Z M76.9664324,15.1351351 C75.4737297,15.1351351 74.2637297,13.682973 74.2637297,11.8918919 C74.2637297,10.1008108 75.4737297,8.64864865 76.9664324,8.64864865 C78.4591351,8.64864865 79.6691351,10.1008108 79.6691351,11.8918919 C79.6691351,13.682973 78.4591351,15.1351351 76.9664324,15.1351351 L76.9664324,15.1351351 Z M79.6691351,4.32432432 L79.6691351,5.76 C78.436973,4.52972973 76.8318378,3.78378378 75.0745405,3.78378378 C71.1937297,3.78378378 68.0475135,7.41378378 68.0475135,11.8918919 C68.0475135,16.37 71.1937297,20 75.0745405,20 C76.8318378,20 78.436973,19.2540541 79.6691351,18.0237838 L79.6691351,19.4594595 L83.9934595,19.4594595 L83.9934595,4.32432432 L79.6691351,4.32432432 Z M95.3448108,15.1351351 C93.8521081,15.1351351 92.6421081,13.682973 92.6421081,11.8918919 C92.6421081,10.1008108 93.8521081,8.64864865 95.3448108,8.64864865 C96.8375135,8.64864865 98.0475135,10.1008108 98.0475135,11.8918919 C98.0475135,13.682973 96.8375135,15.1351351 95.3448108,15.1351351 M93.4529189,3.78378378 C88.9748108,3.78378378 85.3448108,7.41378378 85.3448108,11.8918919 C85.3448108,16.37 88.9748108,20 93.4529189,20 C97.931027,20 101.561027,16.37 101.561027,11.8918919 C101.561027,7.41378378 97.931027,3.78378378 93.4529189,3.78378378 M59.6691351,15.1351351 C58.1764324,15.1351351 56.9664324,13.682973 56.9664324,11.8918919 C56.9664324,10.1008108 58.1764324,8.64864865 59.6691351,8.64864865 C61.1618378,8.64864865 62.3718378,10.1008108 62.3718378,11.8918919 C62.3718378,13.682973 61.1618378,15.1351351 59.6691351,15.1351351 M62.3718378,3.24324324 L62.3718378,5.76 C61.1396757,4.52972973 59.5345405,3.78378378 57.7772432,3.78378378 C53.8964324,3.78378378 50.7502162,7.41378378 50.7502162,11.8918919 C50.7502162,16.37 53.8964324,20 57.7772432,20 C59.5345405,20 61.1396757,19.2540541 62.3718378,18.0237838 L62.3718378,19.4594595 L66.6961622,19.4594595 L66.6961622,0 L65.6150811,0 C63.824,0 62.3718378,1.45216216 62.3718378,3.24324324" fill="url(#gpc16maou__lg3f7uz2sa)"/>
    <path d="M21.6216216,0 L21.6216216,2.16216216 C21.6216216,3.95324324 20.1694595,5.40540541 18.3783784,5.40540541 L15.675,5.405 L15.6756757,16.2162162 C15.6756757,18.0072973 14.2235135,19.4594595 12.4324324,19.4594595 L9.18918919,19.4594595 L9.189,5.405 L7.02702703,5.40540541 L7.02702703,0 L21.6216216,0 Z M5.40540541,2.7027027 C5.40540541,4.19540541 4.19540541,5.40540541 2.7027027,5.40540541 C1.21,5.40540541 0,4.19540541 0,2.7027027 C0,1.21 1.21,0 2.7027027,0 C4.19540541,0 5.40540541,1.21 5.40540541,2.7027027" fill="#FFF"/>
  </g>
</svg>
